PathFileType	4	(X/Y/Z)	T1_P2_Vision_NoMovement_4_0-734.trc
DataRate	CameraRate	NumFrames	NumMarkers	Units	OrigDataRate	OrigDataStartFrame	OrigNumFrames
60	60	6	27	m	60	642	734
Frame#	Time	RHip			RKnee			RAnkle			RBigToe			RSmallToe			RHeel			LHip			LKnee			LAnkle			LBigToe			LSmallToe			LHeel			Neck			Head			Nose			RShoulder			RElbow			RWrist			RThumb			RIndex			RPinky			LShoulder			LElbow			LWrist			LThumb			LIndex			LPinky		
		X1	Y1	Z1	X2	Y2	Z2	X3	Y3	Z3	X4	Y4	Z4	X5	Y5	Z5	X6	Y6	Z6	X7	Y7	Z7	X8	Y8	Z8	X9	Y9	Z9	X10	Y10	Z10	X11	Y11	Z11	X12	Y12	Z12	X13	Y13	Z13	X14	Y14	Z14	X15	Y15	Z15	X16	Y16	Z16	X17	Y17	Z17	X18	Y18	Z18	X19	Y19	Z19	X20	Y20	Z20	X21	Y21	Z21	X22	Y22	Z22	X23	Y23	Z23	X24	Y24	Z24	X25	Y25	Z25	X26	Y26	Z26	X27	Y27	Z27
643	10.716666666666669	458.45342234551913	3642.091884141686	624.2339458375252	842.5191121301734	3682.201313673913	642.0433330991599	1220.2263759983632	3734.5722439324854	688.1549526696209	1282.3618077559345	3619.504633213128	642.9375714169095	1284.164672537103	3672.7187251070245	600.81541333362	1287.9900879211605	3802.8568303120896	745.5277766301136	476.16766224033483	3600.401161792684	836.6488836620051	848.313380874336	3581.1563881764155	833.5223196382124	1232.4571926453366	3677.4007570790995	853.894207206482	1304.6870192381568	3541.588722379549	795.9781420528823	1279.787410508198	3531.5916605020993	836.9116436265839	1271.1661654223826	3732.90417685242	865.4842555358523	-120.12812959465346	3632.003516330612	731.5112153498171	-380.93984657849836	3545.535218713594	664.5261480769788	-236.53451111286287	3508.001836674568	664.318678847073	-31.698564403828108	3684.2433655649183	588.7215229644398	206.42765940820556	3672.411801314365	522.3036407557266	358.72147710381853	3543.811564970845	619.0505806172821	405.26924863698576	3417.3524488858793	622.8730173786545	434.57288287077034	3462.1266746679053	680.8891167955264	460.0370076525282	3461.3898587658673	669.3822334810721	-31.002212214941423	3551.9511980686557	874.0478246099757	227.46128547217558	3485.0900455762285	893.9272226982598	368.18594813352973	3407.3946602227643	711.0379262589852	400.42056093790944	3421.2987762573966	605.8926286209065	433.1872328916155	3412.1046009154697	596.6911225764276	471.4115945811884	3449.752519552569	677.3967146803755
644	10.733333333333333	459.00403802747064	3642.708034319232	623.4789708182824	843.786630901393	3682.4433571950854	642.3904845640939	1218.9750506486757	3733.8357495096484	688.0176065395038	1283.6442969519471	3622.2748989995844	645.0863992164655	1286.3732538563672	3677.7137902850504	601.9198980985404	1288.774101074548	3807.9240692100816	748.3210189116422	477.0124631318107	3606.212458635079	838.5185082514347	848.9835018728697	3579.947046153575	832.7444822574832	1233.5399798486037	3677.4236802070545	854.041490703667	1306.8007340993931	3545.8298052907926	797.5728921955417	1280.2841660763033	3530.578227105	836.1131287808472	1268.373651472066	3731.039921097413	864.8942419520042	-120.06792996796739	3631.587327197343	731.7690010068515	-381.12219246989974	3547.115557733068	665.92349645954	-236.5502584097856	3508.7657268304147	663.3468588545378	-31.18480940723581	3682.784906598089	588.689501383278	207.7974360026037	3671.6668164341395	520.9932828334706	358.93598356773356	3541.9087111964845	618.5845173077439	405.29368968204994	3416.775624857067	623.8298861032321	435.0454627419227	3462.941635657096	682.0775049904626	458.84717890955335	3454.5302281901204	665.9707372835287	-30.989572442812282	3551.7045768979374	874.0155077484435	229.37607054751135	3484.1426895585073	893.2710939378061	368.7206805903811	3407.5818900951995	711.1212557735296	401.35837275170275	3420.2469371815932	605.2579538773069	433.20522104774	3412.0989325673136	596.6785392605241	470.7657788146144	3449.703055098703	677.2292382080461
645	10.75	460.7631606830288	3642.919892019755	623.0500096489295	844.223354808786	3681.246705100459	643.5008299949909	1216.7333901030952	3732.1622627635925	688.3590302628224	1284.4520600157357	3624.1999888982846	646.5237653655553	1288.2173559302228	3682.881015084605	603.2847864604662	1289.3964510443313	3812.903404127269	752.6738710854486	477.0590413561509	3606.6384043325543	838.5670912998025	849.7870175399835	3577.7663553660113	831.5379952147987	1234.735990919569	3676.912996383976	853.8707880736404	1308.4182249800792	3549.8348360271552	798.9197842511951	1279.9366890581973	3528.15925012883	834.5023085087998	1266.1603565832525	3729.5656184709887	864.4156389717439	-120.01071805120603	3629.579680911973	731.9882565251552	-381.3348883517667	3550.7116722826418	669.1205213369353	-236.58141476530392	3509.7472936201175	662.4007072730992	-30.441119848355324	3675.064183665671	585.1742208870429	208.8483508239366	3671.352041815137	520.0696008626694	358.35405891241	3536.7014140828646	617.1126322913535	405.25430964942757	3416.3613894489877	624.6216937923066	434.83045522387437	3461.3542961551125	681.1897747566471	458.0282701876143	3448.686428129629	664.2197765597896	-30.97040343423036	3552.0017153168887	874.1512898118206	230.17324979030673	3483.6687538057413	892.966062418355	369.53760549174433	3406.628287210746	710.8822169004501	401.73829132767617	3419.6527926114127	604.9807815161658	433.1708711566145	3412.17207442268	595.9745315109292	470.4519853281139	3449.7513674456955	677.2112033593392
646	10.766666666666667	463.36534894654363	3640.941709824755	622.2684514404273	844.2840977433628	3679.353548570626	644.4130243883776	1214.9171718634384	3730.540322519191	689.0928257583753	1284.0415964729486	3623.6981192623834	645.7371298630967	1288.9991931401373	3685.459102116077	604.0717222603106	1288.8762557687764	3814.0151085383013	755.1951050485886	476.2978322043357	3601.60354129163	836.7925923354768	850.0537439199405	3574.3898142676	830.1295914152155	1235.8296941841443	3675.6062728857473	853.1657741109375	1309.114059857148	3551.8062100200996	799.5080725511862	1278.8805568343919	3525.170041134726	832.5842138421486	1265.4734960064438	3729.052506280149	864.2465122581264	-119.94976224221105	3625.811394541055	731.8396247712845	-381.20208782317746	3553.9597480935	672.0861657157861	-236.58264231456312	3509.8318891474655	662.3494700550184	-30.190986955553385	3664.6622528210223	579.5208190604102	209.25032895424255	3670.917164379663	519.7507525101629	357.3962675566849	3529.6949566734997	615.1037280212898	405.2300972970475	3415.8495610431746	625.6075126750843	434.3214095895332	3456.5414348371633	677.6263215994545	458.2588117445127	3446.105657539618	664.6659537326009	-30.947373958447262	3552.288291636759	874.2398712572614	230.2614298525853	3483.6111719412957	892.9560369474563	369.830071084434	3402.751253165112	709.7202292056443	401.67394503777143	3418.7413384612164	605.1995539217414	433.11381982247985	3411.9728178193996	595.8948014529375	470.8659814668408	3449.9476247986113	677.3829617793019
647	10.783333333333331	465.8054428721287	3637.7006598071666	621.2546394477724	844.7078432510057	3677.826676648776	644.8626940911497	1214.1775788377247	3729.554864360725	689.9608964213048	1283.4927751865841	3623.2188648207684	644.2314475452455	1289.1061814611294	3686.024853993568	604.3430124050354	1286.7358073030161	3809.438503355214	753.788498720206	475.4539237850496	3595.9318434328948	834.963416168307	849.3496794077269	3571.663671165223	829.2704482686988	1236.2616189517253	3674.7937197953916	852.6883582789648	1309.0057903244929	3552.054456663526	799.5235457222192	1277.4484061931842	3523.1044610830336	830.9871305283409	1266.6528750775226	3729.611165019816	864.4844713399885	-119.88750710170079	3621.498287921754	731.5008262404353	-380.5413562722878	3555.00505963168	673.1937011332965	-236.479566314536	3507.625321951671	662.7974601109104	-29.80045168223884	3657.170241144441	574.9415588856594	209.117782951629	3668.4383642388875	519.7067961539876	356.77274372628045	3524.386225241039	613.5853523248848	405.1324656289357	3415.0835611763673	626.6967235574618	433.7780857475112	3450.360006494715	672.5653786819188	459.53051425178563	3445.924906963033	665.6227170727382	-30.925746729897053	3552.6183554902454	874.3035500481352	230.14452133777635	3483.703966897977	893.0627794605282	368.8758950088883	3395.9724748073477	707.5964060056465	401.3269268040655	3416.156056574012	605.7246794671701	433.03164736974367	3411.4613882625	596.8508347797228	471.71906537295695	3449.813636499056	677.3048097922875
648	10.8	466.9483729437285	3634.0682462307236	620.2583118366193	845.4691379670649	3677.5046350895122	645.3290412291688	1214.1333893242213	3729.2997564185985	690.1872547219675	1283.7904840705337	3624.750603798526	643.7801829798702	1289.1271180710396	3686.124954923465	604.4605969751454	1284.2579644977648	3802.301518526993	749.7478207966051	475.0004142930049	3592.8135531228045	834.5293447450454	847.7360901076567	3570.9853337073355	829.3461458059534	1235.7649840968845	3675.5744650352626	853.1345690499868	1308.333652950769	3551.69019916906	799.3893247803015	1276.3807614237728	3522.6215074519964	830.3735503914992	1269.5432773638745	3731.092578870708	865.1157453542744	-119.84107792585873	3617.330976935846	731.2581093241179	-379.64755346426074	3554.4249518825486	672.8948290640793	-236.24446882765744	3502.3963329388544	662.4794672999569	-28.331217336423155	3653.710425812112	572.6361165602084	208.66384821345798	3662.361467547231	519.6069257354952	357.0691201183247	3522.664139784666	613.1323535447864	404.8400458037012	3414.053789479375	627.2081068463449	433.4709203273502	3446.295776768241	668.8388132389687	461.20453365315046	3446.5211434931534	665.8391942251642	-30.91938252558599	3552.8691575581815	874.4569817872059	230.07410261235998	3483.7748078254226	893.1717383151027	367.26882722865975	3388.3377272370303	705.2050303439275	400.8554579371778	3412.0276782134147	606.0826507222777	432.91653093920183	3410.932152396182	597.9670327736414	472.2517291141517	3448.262765054102	675.9815440207615
